<?xml version="1.0" standalone="no"?>
<!DOCTYPE svg PUBLIC "-//W3C//DTD SVG 20010904//EN"
 "http://www.w3.org/TR/2001/REC-SVG-20010904/DTD/svg10.dtd">
<svg version="1.0" xmlns="http://www.w3.org/2000/svg"
 width="230.000000pt" height="230.000000pt" viewBox="0 0 230.000000 230.000000"
 preserveAspectRatio="xMidYMid meet">
<metadata>
Created by potrace 1.16, written by Peter Selinger 2001-2019
</metadata>
<g transform="translate(0.000000,230.000000) scale(0.100000,-0.100000)"
fill="#000000" stroke="none">
<path d="M576 1716 l-486 -494 0 -343 0 -344 243 -243 242 -242 350 0 350 0
488 488 487 487 0 350 0 350 -243 243 -242 242 -351 0 -352 0 -486 -494z
m1276 97 l188 -188 0 -250 0 -250 -140 -140 -140 -140 0 195 0 195 -242 242
-243 243 -195 0 -195 0 140 140 140 140 250 0 250 0 187 -187z m-490 -490
l188 -188 0 -187 0 -188 -197 0 -198 0 -182 182 -183 183 0 192 0 193 192 0
193 0 187 -187z m-539 -540 l242 -243 195 0 195 0 -140 -140 -140 -140 -250 0
-250 0 -182 182 -183 183 0 260 0 260 133 133 132 132 3 -192 2 -193 243 -242z"/>
</g>
</svg>
